<svg xmlns="http://www.w3.org/2000/svg" width="120.81" height="64.66" viewBox="0 0 120.81 64.66"><defs><style>.cls-1{fill:#2196f3;}</style></defs><title>Asset 4</title><g id="Layer_2" data-name="Layer 2"><g id="Layer_1-2" data-name="Layer 1"><path class="cls-1" d="M52.84,40.83l9.88,1.94A32.23,32.23,0,0,1,.05,30.47L9.91,32.4a22.32,22.32,0,0,0,42.93,8.43ZM10.8,26,1.05,24.12A32.2,32.2,0,0,1,46.84,3.5L36.61,10.37A22.31,22.31,0,0,0,10.8,26Zm45.59,9,8-5.38a32.56,32.56,0,0,1-.2,6.91Z"/><path class="cls-1" d="M68,23.82,58.1,21.88a32.23,32.23,0,0,1,62.66,12.31l-9.86-1.94A22.32,22.32,0,0,0,68,23.82Zm42,14.8,9.75,1.92A32.2,32.2,0,0,1,74,61.16L84.2,54.28A22.29,22.29,0,0,0,110,38.62ZM64.42,29.67l-8,5.37a32.46,32.46,0,0,1,.2-6.9Z"/></g></g></svg>